<svg width="128" height="128" viewBox="0 0 128 128" fill="none" xmlns="http://www.w3.org/2000/svg">
<g clip-path="url(#clip0_1_2)">
<rect width="128" height="128" fill="white"/>
<path d="M2.84188 131C2.07388 131 1.68988 130.648 1.68988 129.944C1.68988 129.304 2.04188 128.92 2.74588 128.792L4.08987 128.6C5.43388 128.408 6.42588 128.024 7.06588 127.448C7.70588 126.872 8.02588 125.912 8.02588 124.568V69.56C8.02588 68.408 7.83388 67.608 7.44988 67.16C7.12988 66.712 6.52188 66.456 5.62588 66.392L3.41788 66.104C2.71388 65.976 2.36188 65.592 2.36188 64.952C2.36188 64.312 2.71388 63.928 3.41788 63.8C5.20988 63.416 6.74588 62.968 8.02588 62.456C9.30588 61.944 10.3619 61.432 11.1939 60.92C12.2179 60.28 12.9859 59.96 13.4979 59.96C14.2019 59.96 14.5539 60.472 14.5539 61.496V124.568C14.5539 125.912 14.7459 126.872 15.1299 127.448C15.5779 127.96 16.4739 128.312 17.8179 128.504L20.0259 128.792C20.7299 128.92 21.0819 129.304 21.0819 129.944C21.0819 130.648 20.6979 131 19.9299 131H2.84188ZM23.9356 131C23.1676 131 22.7836 130.648 22.7836 129.944C22.7836 129.304 23.1356 128.92 23.8396 128.792L25.1836 128.6C26.5276 128.408 27.5196 128.024 28.1596 127.448C28.7996 126.872 29.1196 125.912 29.1196 124.568V69.56C29.1196 68.408 28.9276 67.608 28.5436 67.16C28.2236 66.712 27.6156 66.456 26.7196 66.392L24.5116 66.104C23.8076 65.976 23.4556 65.592 23.4556 64.952C23.4556 64.312 23.8076 63.928 24.5116 63.8C26.3036 63.416 27.8396 62.968 29.1196 62.456C30.3996 61.944 31.4556 61.432 32.2876 60.92C33.3116 60.28 34.0796 59.96 34.5916 59.96C35.2956 59.96 35.6476 60.472 35.6476 61.496V124.568C35.6476 125.912 35.8396 126.872 36.2236 127.448C36.6716 127.96 37.5676 128.312 38.9116 128.504L41.1196 128.792C41.8236 128.92 42.1756 129.304 42.1756 129.944C42.1756 130.648 41.7916 131 41.0236 131H23.9356ZM54.0534 72.92C52.7094 72.92 51.5574 72.44 50.5974 71.48C49.7014 70.52 49.2534 69.304 49.2534 67.832C49.2534 66.36 49.7014 65.176 50.5974 64.28C51.5574 63.32 52.7094 62.84 54.0534 62.84C55.3974 62.84 56.5174 63.32 57.4134 64.28C58.3094 65.176 58.7574 66.36 58.7574 67.832C58.7574 69.304 58.3094 70.52 57.4134 71.48C56.5174 72.44 55.3974 72.92 54.0534 72.92ZM45.9894 131C45.0294 131 44.5494 130.648 44.5494 129.944C44.5494 129.368 44.9654 128.984 45.7974 128.792L46.9494 128.6C48.5494 128.344 49.5734 127.96 50.0214 127.448C50.4694 126.872 50.6934 125.912 50.6934 124.568V92.312C50.6934 91.16 50.5014 90.392 50.1174 90.008C49.7974 89.56 49.1894 89.272 48.2934 89.144L46.2774 88.856C45.4454 88.792 45.0294 88.44 45.0294 87.8C45.0294 87.288 45.5414 86.936 46.5654 86.744C48.5494 86.424 50.1494 85.912 51.3654 85.208C52.5814 84.504 53.7654 83.64 54.9174 82.616C55.4934 82.04 55.9734 81.752 56.3574 81.752C56.9334 81.752 57.2214 82.136 57.2214 82.904V124.568C57.2214 125.912 57.4134 126.872 57.7974 127.448C58.1814 128.024 58.9174 128.376 60.0054 128.504L62.4054 128.792C63.1094 128.92 63.4614 129.272 63.4614 129.848C63.4614 130.616 62.9814 131 62.0214 131H45.9894ZM67.3644 131C66.4044 131 65.9244 130.648 65.9244 129.944C65.9244 129.368 66.3404 128.984 67.1724 128.792L68.3244 128.6C69.6684 128.344 70.5324 127.96 70.9164 127.448C71.3644 126.872 71.5884 125.912 71.5884 124.568V92.312C71.5884 91.16 71.3964 90.392 71.0124 90.008C70.6924 89.56 70.0844 89.272 69.1884 89.144L67.1724 88.856C66.3404 88.792 65.9244 88.44 65.9244 87.8C65.9244 87.288 66.4364 86.936 67.4604 86.744C69.4444 86.424 70.9484 85.912 71.9724 85.208C73.0604 84.504 74.1804 83.64 75.3324 82.616C75.9084 82.04 76.3884 81.752 76.7724 81.752C77.3484 81.752 77.6364 82.136 77.6364 82.904V87.224C77.6364 87.672 77.8284 88.024 78.2124 88.28C78.5964 88.472 79.0124 88.344 79.4604 87.896C82.0844 85.4 84.3564 83.704 86.2764 82.808C88.2604 81.912 90.2444 81.464 92.2284 81.464C94.0844 81.464 95.7164 81.976 97.1244 83C98.5964 83.96 99.6844 85.432 100.388 87.416C100.58 87.928 100.9 88.248 101.348 88.376C101.86 88.44 102.34 88.248 102.788 87.8C105.412 85.368 107.684 83.704 109.604 82.808C111.524 81.912 113.476 81.464 115.46 81.464C118.148 81.464 120.324 82.488 121.988 84.536C123.716 86.52 124.58 89.464 124.58 93.368V124.568C124.58 125.912 124.772 126.872 125.156 127.448C125.604 127.96 126.5 128.312 127.844 128.504L129.956 128.792C130.66 128.92 131.012 129.304 131.012 129.944C131.012 130.648 130.628 131 129.86 131H113.444C112.548 131 112.1 130.648 112.1 129.944C112.1 129.304 112.452 128.92 113.156 128.792L114.5 128.6C115.972 128.408 116.932 128.024 117.38 127.448C117.828 126.872 118.052 125.912 118.052 124.568V94.424C118.052 91.288 117.476 89.08 116.324 87.8C115.236 86.52 113.732 85.88 111.812 85.88C109.892 85.88 108.132 86.488 106.532 87.704C104.996 88.856 103.748 90.424 102.788 92.408C101.828 94.328 101.348 96.472 101.348 98.84V124.568C101.348 125.912 101.572 126.872 102.02 127.448C102.468 127.96 103.396 128.312 104.804 128.504L106.916 128.792C107.62 128.92 107.972 129.304 107.972 129.944C107.972 130.648 107.588 131 106.82 131H90.5004C89.6044 131 89.1564 130.648 89.1564 129.944C89.1564 129.304 89.5084 128.92 90.2124 128.792L91.5564 128.6C92.9004 128.408 93.7644 128.024 94.1484 127.448C94.5964 126.872 94.8204 125.912 94.8204 124.568V94.424C94.8204 91.288 94.2444 89.08 93.0924 87.8C92.0044 86.52 90.5004 85.88 88.5804 85.88C86.6604 85.88 84.9004 86.488 83.3004 87.704C81.7644 88.856 80.5164 90.424 79.5564 92.408C78.5964 94.328 78.1164 96.472 78.1164 98.84V124.568C78.1164 125.912 78.3084 126.872 78.6924 127.448C79.1404 128.024 80.0364 128.376 81.3804 128.504L83.9724 128.792C84.6764 128.92 85.0284 129.272 85.0284 129.848C85.0284 130.616 84.5484 131 83.5884 131H67.3644Z" fill="black"/>
</g>
<defs>
<clipPath id="clip0_1_2">
<rect width="128" height="128" fill="white"/>
</clipPath>
</defs>
</svg>
